<mxfile host="65bd71144e">
    <diagram id="W5QttYxu4p-oK_7ACiCR" name="第 1 页">
        <mxGraphModel dx="1057" dy="440" grid="1" gridSize="10" guides="1" tooltips="1" connect="1" arrows="1" fold="1" page="1" pageScale="1" pageWidth="827" pageHeight="1169" math="0" shadow="0">
            <root>
                <mxCell id="0"/>
                <mxCell id="1" parent="0"/>
                <mxCell id="4" value="" style="html=1;fontSize=20;endArrow=none;endFill=0;" parent="1" source="2" target="3" edge="1">
                    <mxGeometry relative="1" as="geometry"/>
                </mxCell>
                <mxCell id="2" value="游戏" style="rounded=0;whiteSpace=wrap;html=1;fontSize=20;fontStyle=1" parent="1" vertex="1">
                    <mxGeometry x="390" y="320" width="100" height="50" as="geometry"/>
                </mxCell>
                <mxCell id="8" value="" style="edgeStyle=none;html=1;fontSize=20;exitX=0.885;exitY=-0.009;exitDx=0;exitDy=0;endArrow=none;endFill=0;exitPerimeter=0;" parent="1" source="2" target="7" edge="1">
                    <mxGeometry relative="1" as="geometry"/>
                </mxCell>
                <mxCell id="12" value="" style="edgeStyle=none;html=1;fontSize=20;endArrow=none;endFill=0;exitX=0.25;exitY=0;exitDx=0;exitDy=0;" parent="1" source="2" target="11" edge="1">
                    <mxGeometry relative="1" as="geometry"/>
                </mxCell>
                <mxCell id="3" value="🔑id" style="ellipse;whiteSpace=wrap;html=1;fontSize=20;rounded=0;fontStyle=1;" parent="1" vertex="1">
                    <mxGeometry x="450" y="215" width="90" height="55" as="geometry"/>
                </mxCell>
                <mxCell id="7" value="游戏名" style="ellipse;whiteSpace=wrap;html=1;fontSize=20;rounded=0;fontStyle=1;" parent="1" vertex="1">
                    <mxGeometry x="570" y="215" width="90" height="55" as="geometry"/>
                </mxCell>
                <mxCell id="14" value="" style="edgeStyle=none;html=1;fontSize=20;endArrow=none;endFill=0;exitX=0;exitY=0;exitDx=0;exitDy=0;" parent="1" source="2" target="13" edge="1">
                    <mxGeometry relative="1" as="geometry"/>
                </mxCell>
                <mxCell id="17" value="" style="edgeStyle=none;html=1;fontSize=20;endArrow=none;endFill=0;" parent="1" target="16" edge="1">
                    <mxGeometry relative="1" as="geometry">
                        <mxPoint x="390" y="340" as="sourcePoint"/>
                    </mxGeometry>
                </mxCell>
                <mxCell id="11" value="玩家列表" style="ellipse;whiteSpace=wrap;html=1;fontSize=20;rounded=0;fontStyle=1;" parent="1" vertex="1">
                    <mxGeometry x="340" y="215" width="90" height="55" as="geometry"/>
                </mxCell>
                <mxCell id="13" value="游戏起&lt;br&gt;始数据" style="ellipse;whiteSpace=wrap;html=1;fontSize=20;rounded=0;fontStyle=1;" parent="1" vertex="1">
                    <mxGeometry x="217.5" y="215" width="105" height="55" as="geometry"/>
                </mxCell>
                <mxCell id="19" value="" style="edgeStyle=none;html=1;fontSize=20;endArrow=none;endFill=0;exitX=0;exitY=0.75;exitDx=0;exitDy=0;" parent="1" source="2" target="18" edge="1">
                    <mxGeometry relative="1" as="geometry"/>
                </mxCell>
                <mxCell id="16" value="游戏结&lt;br&gt;算数据" style="ellipse;whiteSpace=wrap;html=1;fontSize=20;rounded=0;fontStyle=1;" parent="1" vertex="1">
                    <mxGeometry x="225" y="280" width="90" height="55" as="geometry"/>
                </mxCell>
                <mxCell id="23" value="" style="edgeStyle=none;html=1;fontSize=20;endArrow=none;endFill=0;exitX=0;exitY=1;exitDx=0;exitDy=0;" parent="1" source="2" target="22" edge="1">
                    <mxGeometry relative="1" as="geometry"/>
                </mxCell>
                <mxCell id="25" value="" style="edgeStyle=none;html=1;fontSize=20;endArrow=none;endFill=0;exitX=0.25;exitY=1;exitDx=0;exitDy=0;" parent="1" source="2" target="24" edge="1">
                    <mxGeometry relative="1" as="geometry"/>
                </mxCell>
                <mxCell id="18" value="状态" style="ellipse;whiteSpace=wrap;html=1;fontSize=20;rounded=0;fontStyle=1;" parent="1" vertex="1">
                    <mxGeometry x="225" y="350" width="90" height="55" as="geometry"/>
                </mxCell>
                <mxCell id="22" value="初始状态" style="ellipse;whiteSpace=wrap;html=1;fontSize=20;rounded=0;fontStyle=1;" parent="1" vertex="1">
                    <mxGeometry x="220" y="420" width="102.5" height="55" as="geometry"/>
                </mxCell>
                <mxCell id="27" value="" style="edgeStyle=none;html=1;fontSize=20;endArrow=none;endFill=0;exitX=0.637;exitY=0.998;exitDx=0;exitDy=0;exitPerimeter=0;" parent="1" source="2" target="26" edge="1">
                    <mxGeometry relative="1" as="geometry"/>
                </mxCell>
                <mxCell id="24" value="记录" style="ellipse;whiteSpace=wrap;html=1;fontSize=20;rounded=0;fontStyle=1;" parent="1" vertex="1">
                    <mxGeometry x="350" y="420" width="90" height="55" as="geometry"/>
                </mxCell>
                <mxCell id="29" value="" style="edgeStyle=none;html=1;fontSize=20;endArrow=none;endFill=0;exitX=1;exitY=1;exitDx=0;exitDy=0;" parent="1" source="2" target="28" edge="1">
                    <mxGeometry relative="1" as="geometry"/>
                </mxCell>
                <mxCell id="26" value="创建时间" style="ellipse;whiteSpace=wrap;html=1;fontSize=20;rounded=0;fontStyle=1;" parent="1" vertex="1">
                    <mxGeometry x="459" y="420" width="90" height="55" as="geometry"/>
                </mxCell>
                <mxCell id="28" value="结算时间" style="ellipse;whiteSpace=wrap;html=1;fontSize=20;rounded=0;fontStyle=1;" parent="1" vertex="1">
                    <mxGeometry x="570" y="420" width="90" height="55" as="geometry"/>
                </mxCell>
            </root>
        </mxGraphModel>
    </diagram>
</mxfile>